<svg width="30" height="20" viewBox="0 0 30 20" fill="none" xmlns="http://www.w3.org/2000/svg">
<path d="M24.7167 13.3333H28.3333C28.7754 13.3333 29.1993 13.5089 29.5118 13.8215C29.8244 14.1341 30 14.558 30 15C30 15.442 29.8244 15.866 29.5118 16.1785C29.1993 16.4911 28.7754 16.6667 28.3333 16.6667H24.7167C24.3235 17.7792 23.5497 18.7168 22.532 19.3139C21.5143 19.911 20.3183 20.1291 19.1554 19.9297C17.9924 19.7302 16.9374 19.1261 16.1769 18.224C15.4163 17.3219 14.9992 16.1799 14.9992 15C14.9992 13.8201 15.4163 12.6781 16.1769 11.776C16.9374 10.874 17.9924 10.2698 19.1554 10.0703C20.3183 9.87086 21.5143 10.089 22.532 10.6861C23.5497 11.2832 24.3235 12.2208 24.7167 13.3333ZM20 16.6667C20.442 16.6667 20.8659 16.4911 21.1785 16.1785C21.4911 15.866 21.6667 15.442 21.6667 15C21.6667 14.558 21.4911 14.1341 21.1785 13.8215C20.8659 13.5089 20.442 13.3333 20 13.3333C19.558 13.3333 19.134 13.5089 18.8215 13.8215C18.5089 14.1341 18.3333 14.558 18.3333 15C18.3333 15.442 18.5089 15.866 18.8215 16.1785C19.134 16.4911 19.558 16.6667 20 16.6667ZM15 6.66667C14.558 6.66667 14.134 6.49107 13.8215 6.17851C13.5089 5.86595 13.3333 5.44203 13.3333 5C13.3333 4.55797 13.5089 4.13405 13.8215 3.82149C14.134 3.50893 14.558 3.33333 15 3.33333H28.3333C28.7754 3.33333 29.1993 3.50893 29.5118 3.82149C29.8244 4.13405 30 4.55797 30 5C30 5.44203 29.8244 5.86595 29.5118 6.17851C29.1993 6.49107 28.7754 6.66667 28.3333 6.66667H15ZM1.66667 16.6667C1.22464 16.6667 0.800716 16.4911 0.488155 16.1785C0.175595 15.866 0 15.442 0 15C0 14.558 0.175595 14.1341 0.488155 13.8215C0.800716 13.5089 1.22464 13.3333 1.66667 13.3333H10C10.442 13.3333 10.8659 13.5089 11.1785 13.8215C11.4911 14.1341 11.6667 14.558 11.6667 15C11.6667 15.442 11.4911 15.866 11.1785 16.1785C10.8659 16.4911 10.442 16.6667 10 16.6667H1.66667ZM5 10C3.67392 10 2.40215 9.47322 1.46447 8.53554C0.526784 7.59785 0 6.32608 0 5C0 3.67392 0.526784 2.40215 1.46447 1.46447C2.40215 0.526784 3.67392 0 5 0C6.32608 0 7.59785 0.526784 8.53553 1.46447C9.47322 2.40215 10 3.67392 10 5C10 6.32608 9.47322 7.59785 8.53553 8.53554C7.59785 9.47322 6.32608 10 5 10ZM5 6.66667C5.44203 6.66667 5.86595 6.49107 6.17851 6.17851C6.49107 5.86595 6.66667 5.44203 6.66667 5C6.66667 4.55797 6.49107 4.13405 6.17851 3.82149C5.86595 3.50893 5.44203 3.33333 5 3.33333C4.55797 3.33333 4.13405 3.50893 3.82149 3.82149C3.50893 4.13405 3.33333 4.55797 3.33333 5C3.33333 5.44203 3.50893 5.86595 3.82149 6.17851C4.13405 6.49107 4.55797 6.66667 5 6.66667Z" fill="#33539B"/>
</svg>
