<svg width="39" height="39" viewBox="0 0 39 39" fill="none" xmlns="http://www.w3.org/2000/svg">
<rect x="1" y="1" width="37" height="37" rx="18.5" fill="white"/>
<path fill-rule="evenodd" clip-rule="evenodd" d="M15.815 24.7216C15.7315 24.6486 15.5386 24.4791 15.47 24.415C13.7972 22.8506 12.7013 20.4009 12.7013 17.6402C12.7013 12.8197 16.0349 9 20.0007 9C23.9664 9 27.3 12.8197 27.3 17.6402C27.3 20.3986 26.206 22.8465 24.5376 24.4134C24.4674 24.4794 24.2708 24.6523 24.1884 24.7246L24.1812 24.8444C24.228 25.5635 24.7135 26.1865 25.4106 26.4065C30.592 28.0371 34.3484 31.9335 34.9791 36.5515C35.0659 37.1676 34.8802 37.7908 34.47 38.2602C34.0598 38.7296 33.4654 38.9991 32.8405 38.9991C28.2675 39 11.734 39 7.16094 39C6.53561 39 5.94091 38.7304 5.53056 38.2608C5.12022 37.7912 4.93445 37.1677 5.02071 36.5556C5.65298 31.9334 9.40933 28.0371 14.5899 26.4066C15.2894 26.1859 15.7755 25.5603 15.8203 24.8388L15.815 24.7216Z" fill="#0A2973"/>
<rect x="1" y="1" width="37" height="37" rx="18.5" stroke="#0A2973" stroke-width="2"/>
</svg>
