<svg width="230" height="84" viewBox="0 0 230 84" fill="none" xmlns="http://www.w3.org/2000/svg">
<path d="M66.2513 10.7425H11.8504L15.7694 0H70.1704L66.2513 10.7425ZM64.2918 16.1138H9.8664L5.94738 26.8563H60.3483L64.2918 16.1138ZM58.4133 32.1787H3.98787L0.0688477 42.9212H54.4208L58.4133 32.1787Z" fill="#009FDF"/>
<path d="M195.873 69.8019H205.671C207.063 69.9676 208.475 69.7892 209.782 69.2826C211.09 68.7759 212.251 67.9565 213.166 66.8965C214.51 65.1434 215.187 62.972 215.076 60.7684C215.168 59.3661 214.91 57.963 214.324 56.6848C213.739 55.4065 212.844 54.293 211.721 53.4439C209.902 52.2578 207.739 51.7081 205.573 51.8814H195.873V69.8019ZM183.014 80.6176V16.1137H225.119L221.42 26.9295H195.873V41.2121H206.283C214.684 41.2121 219.044 43.2142 222.057 45.7777C224.211 47.6789 225.905 50.0416 227.012 52.6886C228.12 55.3356 228.611 58.1981 228.45 61.0614C228.615 64.1447 228.005 67.2204 226.675 70.009C225.345 72.7975 223.336 75.2105 220.832 77.0286C216.791 79.8119 212.554 80.5932 203.932 80.5932L183.014 80.6176ZM145.734 80.6176V26.9051H127.021V16.1137H178.972L175.274 26.9295H158.716V80.642L145.734 80.6176ZM93.8808 41.9446H101.229C102.732 42.0469 104.242 41.9318 105.711 41.6028C107.24 41.1161 108.557 40.1262 109.447 38.7954C110.337 37.4646 110.747 35.8719 110.61 34.2783C110.814 32.6949 110.428 31.0919 109.525 29.7734C108.622 28.4549 107.265 27.5124 105.711 27.1248C104.107 26.7535 102.458 26.6056 100.813 26.6853H93.8808V41.9446ZM93.8808 53.1021V70.0216H102.846C105.316 70.3031 107.8 69.6206 109.777 68.1172C110.688 67.2757 111.402 66.2444 111.868 65.0965C112.334 63.9487 112.54 62.7127 112.472 61.4764C112.511 59.5012 111.909 57.5661 110.757 55.9587C108.847 53.5172 106.495 53.0533 102.478 53.0533L93.8808 53.1021ZM114.603 46.2904V46.5101C116.786 47.3481 118.827 48.5176 120.653 49.977C122.498 51.5034 123.956 53.4417 124.909 55.6347C125.862 57.8277 126.284 60.2138 126.139 62.5995C126.139 71.4132 121.436 77.7855 113.721 79.6898C110.645 80.4392 107.478 80.7435 104.315 80.5932H81.0215V16.1137H101.743C105.035 15.9938 108.328 16.2974 111.541 17.0171C119.036 19.0191 123.959 24.1706 123.959 32.3007C124.02 34.2391 123.685 36.1696 122.973 37.9745C122.262 39.7794 121.189 41.421 119.82 42.7991C118.366 44.2704 116.635 45.4404 114.725 46.2416L114.603 46.2904Z" fill="#0A2973"/>
</svg>
