<svg width="150" height="55" viewBox="0 0 150 55" fill="none" xmlns="http://www.w3.org/2000/svg">
<g clip-path="url(#clip0_12_48)">
<path d="M43.2077 7.03379H7.7288L10.2847 0H45.7636L43.2077 7.03379ZM41.9297 10.5507H6.43488L3.87899 17.5845H39.3579L41.9297 10.5507ZM38.0959 21.0694H2.60105L0.045166 28.1032H35.4921L38.0959 21.0694Z" fill="#009FDF"/>
<path d="M127.743 45.7036H134.133C135.041 45.8121 135.962 45.6954 136.815 45.3636C137.667 45.0319 138.425 44.4953 139.021 43.8013C139.898 42.6534 140.339 41.2317 140.267 39.7888C140.327 38.8707 140.159 37.952 139.777 37.115C139.395 36.2781 138.811 35.549 138.079 34.9931C136.893 34.2164 135.482 33.8565 134.069 33.97H127.743V45.7036ZM119.357 52.7854V10.5507H146.817L144.404 17.6324H127.743V26.9842H134.532C140.012 26.9842 142.855 28.295 144.82 29.9735C146.224 31.2184 147.329 32.7654 148.051 34.4985C148.773 36.2316 149.094 38.1059 148.989 39.9807C149.097 41.9995 148.699 44.0134 147.831 45.8392C146.964 47.665 145.654 49.245 144.021 50.4354C141.385 52.2578 138.622 52.7694 132.999 52.7694L119.357 52.7854ZM95.044 52.7854V17.6164H82.8397V10.5507H116.721L114.309 17.6324H103.51V52.8013L95.044 52.7854ZM61.2266 27.4637H66.0188C66.9989 27.5307 67.9836 27.4554 68.9421 27.2399C69.939 26.9213 70.798 26.2731 71.3785 25.4018C71.959 24.5304 72.2264 23.4876 72.137 22.4442C72.2699 21.4074 72.0181 20.3578 71.4292 19.4945C70.8404 18.6312 69.9554 18.0141 68.9421 17.7603C67.8956 17.5172 66.8204 17.4203 65.7473 17.4726H61.2266V27.4637ZM61.2266 34.7693V45.8475H67.0731C68.6844 46.0318 70.3044 45.585 71.5938 44.6006C72.1881 44.0496 72.6536 43.3743 72.9573 42.6228C73.261 41.8712 73.3955 41.0619 73.351 40.2524C73.3765 38.9591 72.9843 37.6921 72.2328 36.6396C70.9868 35.041 69.4533 34.7373 66.8335 34.7373L61.2266 34.7693ZM74.7408 30.3092V30.4531C76.165 31.0018 77.4959 31.7675 78.6864 32.7231C79.8897 33.7225 80.8408 34.9916 81.4625 36.4275C82.0842 37.8634 82.359 39.4257 82.2646 40.9878C82.2646 46.7587 79.1976 50.931 74.1657 52.1779C72.1599 52.6686 70.0941 52.8678 68.0316 52.7694H52.8401V10.5507H66.3543C68.5007 10.4722 70.6483 10.671 72.744 11.1422C77.6321 12.453 80.8429 15.826 80.8429 21.1493C80.8829 22.4185 80.6641 23.6825 80.1999 24.8643C79.7358 26.0461 79.036 27.1209 78.1433 28.0232C77.1952 28.9866 76.0659 29.7527 74.8206 30.2773L74.7408 30.3092Z" fill="#0A2973"/>
</g>
<defs>
<clipPath id="clip0_12_48">
<rect width="150" height="55" fill="white"/>
</clipPath>
</defs>
</svg>
